<svg xmlns="http://www.w3.org/2000/svg" xmlns:xlink="http://www.w3.org/1999/xlink" viewBox="41 20 361 119" width="606.7226890756302" height="200"><path d="M 46.000,103.000 C 49.402,99.878 49.500,100.000 53.000,97.000" stroke-width="5.228" stroke="black" fill="none" stroke-linecap="round"></path><path d="M 53.000,97.000 C 56.957,93.941 56.902,93.878 61.000,91.000" stroke-width="3.921" stroke="black" fill="none" stroke-linecap="round"></path><path d="M 61.000,91.000 C 68.043,86.059 67.957,85.941 75.000,81.000" stroke-width="2.987" stroke="black" fill="none" stroke-linecap="round"></path><path d="M 75.000,81.000 C 78.968,77.957 79.043,78.059 83.000,75.000" stroke-width="3.401" stroke="black" fill="none" stroke-linecap="round"></path><path d="M 83.000,75.000 C 94.426,67.518 93.968,66.957 105.000,59.000" stroke-width="2.496" stroke="black" fill="none" stroke-linecap="round"></path><path d="M 105.000,59.000 C 112.253,52.747 112.426,53.018 119.000,46.000" stroke-width="2.654" stroke="black" fill="none" stroke-linecap="round"></path><path d="M 119.000,46.000 C 123.035,41.531 123.253,41.747 127.000,37.000" stroke-width="3.020" stroke="black" fill="none" stroke-linecap="round"></path><path d="M 127.000,37.000 C 133.232,29.768 130.035,33.531 133.000,30.000" stroke-width="3.912" stroke="black" fill="none" stroke-linecap="round"></path><path d="M 133.000,30.000 C 129.865,34.393 132.732,30.268 126.000,38.000" stroke-width="4.473" stroke="black" fill="none" stroke-linecap="round"></path><path d="M 126.000,38.000 C 121.930,40.912 122.365,41.393 118.000,44.000" stroke-width="3.778" stroke="black" fill="none" stroke-linecap="round"></path><path d="M 118.000,44.000 C 114.951,46.443 114.930,46.412 112.000,49.000" stroke-width="3.878" stroke="black" fill="none" stroke-linecap="round"></path><path d="M 112.000,49.000 C 107.609,53.128 107.451,52.943 103.000,57.000" stroke-width="3.508" stroke="black" fill="none" stroke-linecap="round"></path><path d="M 103.000,57.000 C 95.165,63.719 95.109,63.628 87.000,70.000" stroke-width="2.771" stroke="black" fill="none" stroke-linecap="round"></path><path d="M 87.000,70.000 C 76.551,77.449 82.165,73.719 77.000,77.000" stroke-width="3.052" stroke="black" fill="none" stroke-linecap="round"></path><path d="M 77.000,77.000 C 82.969,72.458 77.551,76.449 89.000,68.000" stroke-width="4.091" stroke="black" fill="none" stroke-linecap="round"></path><path d="M 89.000,68.000 C 94.255,63.618 94.469,63.958 100.000,60.000" stroke-width="3.427" stroke="black" fill="none" stroke-linecap="round"></path><path d="M 100.000,60.000 C 107.944,55.394 107.755,55.118 116.000,51.000" stroke-width="2.819" stroke="black" fill="none" stroke-linecap="round"></path><path d="M 116.000,51.000 C 118.956,49.405 118.944,49.394 122.000,48.000" stroke-width="3.533" stroke="black" fill="none" stroke-linecap="round"></path><path d="M 122.000,48.000 C 128.846,42.996 125.456,46.405 129.000,45.000" stroke-width="3.772" stroke="black" fill="none" stroke-linecap="round"></path><path d="M 129.000,45.000 C 127.094,53.630 129.346,49.496 123.000,61.000" stroke-width="4.444" stroke="black" fill="none" stroke-linecap="round"></path><path d="M 123.000,61.000 C 118.518,66.514 119.594,67.130 114.000,72.000" stroke-width="3.306" stroke="black" fill="none" stroke-linecap="round"></path><path d="M 114.000,72.000 C 111.679,75.163 111.518,75.014 109.000,78.000" stroke-width="3.715" stroke="black" fill="none" stroke-linecap="round"></path><path d="M 109.000,78.000 C 102.658,83.689 103.179,84.163 97.000,90.000" stroke-width="3.100" stroke="black" fill="none" stroke-linecap="round"></path><path d="M 97.000,90.000 C 89.955,98.464 89.658,98.189 83.000,107.000" stroke-width="2.678" stroke="black" fill="none" stroke-linecap="round"></path><path d="M 83.000,107.000 C 78.968,111.974 78.955,111.964 75.000,117.000" stroke-width="2.975" stroke="black" fill="none" stroke-linecap="round"></path><path d="M 75.000,117.000 C 71.676,121.655 71.468,121.474 68.000,126.000" stroke-width="3.288" stroke="black" fill="none" stroke-linecap="round"></path><path d="M 68.000,126.000 C 66.000,128.000 66.176,128.155 64.000,130.000" stroke-width="3.890" stroke="black" fill="none" stroke-linecap="round"></path><path d="M 64.000,130.000 C 59.258,135.237 62.000,132.000 60.000,134.000" stroke-width="4.486" stroke="black" fill="none" stroke-linecap="round"></path><path d="M 60.000,134.000 C 64.798,126.845 62.258,130.237 70.000,120.000" stroke-width="4.488" stroke="black" fill="none" stroke-linecap="round"></path><path d="M 70.000,120.000 C 74.259,114.288 74.298,114.345 79.000,109.000" stroke-width="3.454" stroke="black" fill="none" stroke-linecap="round"></path><path d="M 79.000,109.000 C 87.444,99.945 87.259,99.788 96.000,91.000" stroke-width="2.476" stroke="black" fill="none" stroke-linecap="round"></path><path d="M 96.000,91.000 C 98.445,88.444 98.444,88.445 101.000,86.000" stroke-width="3.396" stroke="black" fill="none" stroke-linecap="round"></path><path d="M 101.000,86.000 C 109.676,77.121 109.945,77.444 119.000,69.000" stroke-width="2.538" stroke="black" fill="none" stroke-linecap="round"></path><path d="M 119.000,69.000 C 125.680,64.205 125.176,63.621 132.000,59.000" stroke-width="2.757" stroke="black" fill="none" stroke-linecap="round"></path><path d="M 132.000,59.000 C 133.916,56.910 134.180,57.205 136.000,55.000" stroke-width="3.671" stroke="black" fill="none" stroke-linecap="round"></path><path d="M 136.000,55.000 C 140.349,51.843 139.916,51.410 144.000,48.000" stroke-width="3.521" stroke="black" fill="none" stroke-linecap="round"></path><path d="M 144.000,48.000 C 149.347,41.359 149.849,41.843 155.000,35.000" stroke-width="3.055" stroke="black" fill="none" stroke-linecap="round"></path><path d="M 155.000,35.000 C 158.838,30.000 157.347,32.359 160.000,30.000" stroke-width="4.036" stroke="black" fill="none" stroke-linecap="round"></path><path d="M 160.000,30.000 C 159.919,32.637 160.838,30.000 159.000,35.000" stroke-width="4.858" stroke="black" fill="none" stroke-linecap="round"></path><path d="M 159.000,35.000 C 156.509,41.792 156.419,41.637 153.000,48.000" stroke-width="3.436" stroke="black" fill="none" stroke-linecap="round"></path><path d="M 153.000,48.000 C 149.500,53.000 150.009,53.292 146.000,58.000" stroke-width="3.321" stroke="black" fill="none" stroke-linecap="round"></path><path d="M 146.000,58.000 C 142.758,63.217 142.500,63.000 139.000,68.000" stroke-width="3.288" stroke="black" fill="none" stroke-linecap="round"></path><path d="M 139.000,68.000 C 136.820,69.839 137.258,70.217 135.000,72.000" stroke-width="3.890" stroke="black" fill="none" stroke-linecap="round"></path><path d="M 135.000,72.000 C 128.700,79.288 128.820,79.339 123.000,87.000" stroke-width="2.991" stroke="black" fill="none" stroke-linecap="round"></path><path d="M 123.000,87.000 C 120.858,91.285 120.200,90.788 118.000,95.000" stroke-width="3.449" stroke="black" fill="none" stroke-linecap="round"></path><path d="M 118.000,95.000 C 112.848,101.522 115.858,97.785 113.000,100.000" stroke-width="3.799" stroke="black" fill="none" stroke-linecap="round"></path><path d="M 113.000,100.000 C 115.302,92.133 113.348,96.522 119.000,85.000" stroke-width="4.527" stroke="black" fill="none" stroke-linecap="round"></path><path d="M 119.000,85.000 C 123.297,79.172 122.302,78.633 127.000,73.000" stroke-width="3.375" stroke="black" fill="none" stroke-linecap="round"></path><path d="M 127.000,73.000 C 128.622,68.777 129.297,69.172 131.000,65.000" stroke-width="3.634" stroke="black" fill="none" stroke-linecap="round"></path><path d="M 131.000,65.000 C 137.312,55.363 137.122,55.277 144.000,46.000" stroke-width="2.663" stroke="black" fill="none" stroke-linecap="round"></path><path d="M 144.000,46.000 C 147.406,41.423 147.312,41.363 151.000,37.000" stroke-width="3.120" stroke="black" fill="none" stroke-linecap="round"></path><path d="M 151.000,37.000 C 153.887,33.396 153.906,33.423 157.000,30.000" stroke-width="3.421" stroke="black" fill="none" stroke-linecap="round"></path><path d="M 157.000,30.000 C 161.219,23.829 159.387,27.396 162.000,25.000" stroke-width="4.227" stroke="black" fill="none" stroke-linecap="round"></path><path d="M 162.000,25.000 C 162.128,30.643 163.219,26.829 161.000,36.000" stroke-width="4.738" stroke="black" fill="none" stroke-linecap="round"></path><path d="M 161.000,36.000 C 160.317,40.457 160.128,40.143 158.000,44.000" stroke-width="3.934" stroke="black" fill="none" stroke-linecap="round"></path><path d="M 158.000,44.000 C 151.251,53.222 151.817,53.457 144.000,62.000" stroke-width="3.577" stroke="black" fill="none" stroke-linecap="round"></path><path d="M 144.000,62.000 C 141.500,64.500 141.751,64.722 139.000,67.000" stroke-width="3.845" stroke="black" fill="none" stroke-linecap="round"></path><path d="M 139.000,67.000 C 135.000,72.500 136.500,69.500 134.000,72.000" stroke-width="3.933" stroke="black" fill="none" stroke-linecap="round"></path><path d="M 134.000,72.000 C 133.762,68.218 133.000,71.500 135.000,65.000" stroke-width="4.762" stroke="black" fill="none" stroke-linecap="round"></path><path d="M 135.000,65.000 C 136.728,61.777 136.262,61.718 139.000,59.000" stroke-width="4.163" stroke="black" fill="none" stroke-linecap="round"></path><path d="M 139.000,59.000 C 141.043,55.613 141.228,56.277 144.000,54.000" stroke-width="4.512" stroke="black" fill="none" stroke-linecap="round"></path><path d="M 144.000,54.000 C 148.506,51.319 146.543,52.613 150.000,53.000" stroke-width="4.676" stroke="black" fill="none" stroke-linecap="round"></path><path d="M 150.000,53.000 C 150.569,58.134 152.506,55.819 152.000,63.000" stroke-width="4.684" stroke="black" fill="none" stroke-linecap="round"></path><path d="M 152.000,63.000 C 153.301,66.602 153.069,66.634 155.000,70.000" stroke-width="4.604" stroke="black" fill="none" stroke-linecap="round"></path><path d="M 155.000,70.000 C 155.841,74.280 156.301,72.602 158.000,75.000" stroke-width="4.754" stroke="black" fill="none" stroke-linecap="round"></path><path d="M 158.000,75.000 C 161.664,74.869 160.341,75.780 164.000,73.000" stroke-width="5.084" stroke="black" fill="none" stroke-linecap="round"></path><path d="M 164.000,73.000 C 165.948,69.964 166.664,70.869 168.000,67.000" stroke-width="4.175" stroke="black" fill="none" stroke-linecap="round"></path><path d="M 168.000,67.000 C 173.000,60.860 170.448,63.464 173.000,60.000" stroke-width="4.390" stroke="black" fill="none" stroke-linecap="round"></path><path d="M 173.000,60.000 C 170.254,61.746 173.000,59.360 168.000,64.000" stroke-width="5.033" stroke="black" fill="none" stroke-linecap="round"></path><path d="M 168.000,64.000 C 164.525,67.212 164.754,67.246 162.000,71.000" stroke-width="3.910" stroke="black" fill="none" stroke-linecap="round"></path><path d="M 162.000,71.000 C 158.918,76.464 160.525,73.212 160.000,76.000" stroke-width="4.515" stroke="black" fill="none" stroke-linecap="round"></path><path d="M 160.000,76.000 C 164.469,71.965 162.418,74.964 169.000,68.000" stroke-width="4.827" stroke="black" fill="none" stroke-linecap="round"></path><path d="M 169.000,68.000 C 174.193,62.000 172.469,64.965 176.000,62.000" stroke-width="4.558" stroke="black" fill="none" stroke-linecap="round"></path><path d="M 176.000,62.000 C 175.796,65.083 177.193,62.000 175.000,68.000" stroke-width="5.153" stroke="black" fill="none" stroke-linecap="round"></path><path d="M 175.000,68.000 C 171.840,72.613 174.296,70.583 173.000,73.000" stroke-width="4.927" stroke="black" fill="none" stroke-linecap="round"></path><path d="M 173.000,73.000 C 177.393,72.164 174.840,73.613 181.000,70.000" stroke-width="5.121" stroke="black" fill="none" stroke-linecap="round"></path><path d="M 181.000,70.000 C 184.591,67.099 184.893,67.664 188.000,64.000" stroke-width="4.613" stroke="black" fill="none" stroke-linecap="round"></path><path d="M 188.000,64.000 C 192.222,59.778 190.091,62.099 192.000,60.000" stroke-width="4.331" stroke="black" fill="none" stroke-linecap="round"></path><path d="M 192.000,60.000 C 189.500,62.500 191.722,60.278 187.000,65.000" stroke-width="4.999" stroke="black" fill="none" stroke-linecap="round"></path><path d="M 187.000,65.000 C 185.000,67.000 185.000,67.000 183.000,69.000" stroke-width="4.874" stroke="black" fill="none" stroke-linecap="round"></path><path d="M 183.000,69.000 C 178.778,73.222 181.000,71.000 179.000,73.000" stroke-width="4.823" stroke="black" fill="none" stroke-linecap="round"></path><path d="M 179.000,73.000 C 181.500,70.500 179.278,72.722 184.000,68.000" stroke-width="5.160" stroke="black" fill="none" stroke-linecap="round"></path><path d="M 184.000,68.000 C 190.431,60.628 188.000,64.000 192.000,60.000" stroke-width="3.768" stroke="black" fill="none" stroke-linecap="round"></path><path d="M 192.000,60.000 C 190.590,63.048 192.931,59.628 189.000,66.000" stroke-width="4.739" stroke="black" fill="none" stroke-linecap="round"></path><path d="M 189.000,66.000 C 184.700,71.501 187.090,69.548 185.000,73.000" stroke-width="4.603" stroke="black" fill="none" stroke-linecap="round"></path><path d="M 185.000,73.000 C 188.006,72.728 185.200,74.001 190.000,71.000" stroke-width="5.072" stroke="black" fill="none" stroke-linecap="round"></path><path d="M 190.000,71.000 C 195.249,65.701 195.506,66.228 200.000,60.000" stroke-width="4.202" stroke="black" fill="none" stroke-linecap="round"></path><path d="M 200.000,60.000 C 202.285,56.318 202.749,56.701 205.000,53.000" stroke-width="3.864" stroke="black" fill="none" stroke-linecap="round"></path><path d="M 205.000,53.000 C 209.152,47.787 206.785,50.818 209.000,49.000" stroke-width="4.476" stroke="black" fill="none" stroke-linecap="round"></path><path d="M 209.000,49.000 C 203.432,59.581 208.652,51.787 204.000,61.000" stroke-width="4.751" stroke="black" fill="none" stroke-linecap="round"></path><path d="M 204.000,61.000 C 207.716,57.695 204.432,62.081 211.000,54.000" stroke-width="5.011" stroke="black" fill="none" stroke-linecap="round"></path><path d="M 211.000,54.000 C 215.519,48.515 215.716,48.695 220.000,43.000" stroke-width="3.392" stroke="black" fill="none" stroke-linecap="round"></path><path d="M 220.000,43.000 C 221.813,40.333 222.019,40.515 224.000,38.000" stroke-width="3.850" stroke="black" fill="none" stroke-linecap="round"></path><path d="M 224.000,38.000 C 232.772,26.721 229.313,32.333 235.000,27.000" stroke-width="3.162" stroke="black" fill="none" stroke-linecap="round"></path><path d="M 235.000,27.000 C 234.415,33.364 236.772,27.221 232.000,39.000" stroke-width="4.192" stroke="black" fill="none" stroke-linecap="round"></path><path d="M 232.000,39.000 C 228.079,47.382 228.415,47.364 223.000,55.000" stroke-width="2.952" stroke="black" fill="none" stroke-linecap="round"></path><path d="M 223.000,55.000 C 216.420,63.441 217.079,63.882 210.000,72.000" stroke-width="3.285" stroke="black" fill="none" stroke-linecap="round"></path><path d="M 210.000,72.000 C 207.153,75.310 207.420,75.441 205.000,79.000" stroke-width="3.538" stroke="black" fill="none" stroke-linecap="round"></path><path d="M 205.000,79.000 C 202.078,84.184 203.653,81.310 203.000,84.000" stroke-width="4.368" stroke="black" fill="none" stroke-linecap="round"></path><path d="M 203.000,84.000 C 206.632,81.143 204.578,83.684 210.000,78.000" stroke-width="4.388" stroke="black" fill="none" stroke-linecap="round"></path><path d="M 210.000,78.000 C 213.900,73.895 214.132,74.143 218.000,70.000" stroke-width="3.628" stroke="black" fill="none" stroke-linecap="round"></path><path d="M 218.000,70.000 C 223.763,64.198 223.900,64.395 230.000,59.000" stroke-width="2.996" stroke="black" fill="none" stroke-linecap="round"></path><path d="M 230.000,59.000 C 233.055,57.079 232.763,56.698 236.000,55.000" stroke-width="3.605" stroke="black" fill="none" stroke-linecap="round"></path><path d="M 236.000,55.000 C 243.545,47.691 241.555,51.079 247.000,47.000" stroke-width="3.255" stroke="black" fill="none" stroke-linecap="round"></path><path d="M 247.000,47.000 C 247.456,50.452 248.545,46.691 246.000,53.000" stroke-width="4.406" stroke="black" fill="none" stroke-linecap="round"></path><path d="M 246.000,53.000 C 242.752,57.248 243.456,57.452 239.000,61.000" stroke-width="3.699" stroke="black" fill="none" stroke-linecap="round"></path><path d="M 239.000,61.000 C 234.028,65.531 234.252,65.748 229.000,70.000" stroke-width="3.224" stroke="black" fill="none" stroke-linecap="round"></path><path d="M 229.000,70.000 C 225.057,73.567 225.028,73.531 221.000,77.000" stroke-width="3.436" stroke="black" fill="none" stroke-linecap="round"></path><path d="M 221.000,77.000 C 212.269,84.850 212.057,84.567 203.000,92.000" stroke-width="2.538" stroke="black" fill="none" stroke-linecap="round"></path><path d="M 203.000,92.000 C 194.696,98.328 194.769,98.350 186.000,104.000" stroke-width="2.472" stroke="black" fill="none" stroke-linecap="round"></path><path d="M 186.000,104.000 C 183.044,105.595 183.196,105.828 180.000,107.000" stroke-width="3.423" stroke="black" fill="none" stroke-linecap="round"></path><path d="M 180.000,107.000 C 174.063,110.798 176.544,108.595 173.000,110.000" stroke-width="3.777" stroke="black" fill="none" stroke-linecap="round"></path><path d="M 173.000,110.000 C 173.861,106.540 172.063,109.298 176.000,104.000" stroke-width="4.378" stroke="black" fill="none" stroke-linecap="round"></path><path d="M 176.000,104.000 C 182.061,96.948 181.861,97.040 189.000,91.000" stroke-width="3.871" stroke="black" fill="none" stroke-linecap="round"></path><path d="M 189.000,91.000 C 193.128,88.681 192.561,87.948 197.000,86.000" stroke-width="3.690" stroke="black" fill="none" stroke-linecap="round"></path><path d="M 197.000,86.000 C 199.300,83.705 199.628,84.181 202.000,82.000" stroke-width="3.913" stroke="black" fill="none" stroke-linecap="round"></path><path d="M 202.000,82.000 C 209.071,78.120 208.800,77.705 216.000,74.000" stroke-width="3.133" stroke="black" fill="none" stroke-linecap="round"></path><path d="M 216.000,74.000 C 227.071,66.118 227.571,67.120 239.000,60.000" stroke-width="2.328" stroke="black" fill="none" stroke-linecap="round"></path><path d="M 239.000,60.000 C 246.913,56.696 246.571,56.118 255.000,54.000" stroke-width="3.147" stroke="black" fill="none" stroke-linecap="round"></path><path d="M 255.000,54.000 C 260.507,51.605 257.413,53.196 260.000,53.000" stroke-width="3.890" stroke="black" fill="none" stroke-linecap="round"></path><path d="M 260.000,53.000 C 256.008,59.465 258.507,57.105 251.000,65.000" stroke-width="4.235" stroke="black" fill="none" stroke-linecap="round"></path><path d="M 251.000,65.000 C 246.163,69.698 246.508,69.965 241.000,74.000" stroke-width="3.334" stroke="black" fill="none" stroke-linecap="round"></path><path d="M 241.000,74.000 C 237.336,77.543 237.163,77.198 233.000,80.000" stroke-width="3.422" stroke="black" fill="none" stroke-linecap="round"></path><path d="M 233.000,80.000 C 222.346,86.462 222.336,86.043 211.000,91.000" stroke-width="2.550" stroke="black" fill="none" stroke-linecap="round"></path><path d="M 211.000,91.000 C 201.399,95.545 204.846,93.462 198.000,94.000" stroke-width="2.943" stroke="black" fill="none" stroke-linecap="round"></path><path d="M 198.000,94.000 C 197.798,89.181 195.899,93.045 200.000,86.000" stroke-width="4.050" stroke="black" fill="none" stroke-linecap="round"></path><path d="M 200.000,86.000 C 203.441,83.415 202.298,82.681 207.000,81.000" stroke-width="3.768" stroke="black" fill="none" stroke-linecap="round"></path><path d="M 207.000,81.000 C 216.881,72.812 217.441,73.915 228.000,67.000" stroke-width="2.572" stroke="black" fill="none" stroke-linecap="round"></path><path d="M 228.000,67.000 C 239.127,61.031 238.881,61.312 251.000,58.000" stroke-width="2.370" stroke="black" fill="none" stroke-linecap="round"></path><path d="M 251.000,58.000 C 262.953,55.972 262.627,55.031 275.000,55.000" stroke-width="2.336" stroke="black" fill="none" stroke-linecap="round"></path><path d="M 275.000,55.000 C 294.011,53.000 293.953,53.472 313.000,53.000" stroke-width="1.882" stroke="black" fill="none" stroke-linecap="round"></path><path d="M 313.000,53.000 C 326.553,53.585 326.511,53.000 340.000,55.000" stroke-width="2.022" stroke="black" fill="none" stroke-linecap="round"></path><path d="M 340.000,55.000 C 345.432,56.609 345.553,55.585 351.000,57.000" stroke-width="2.820" stroke="black" fill="none" stroke-linecap="round"></path><path d="M 351.000,57.000 C 374.116,59.381 373.932,58.609 397.000,59.000" stroke-width="1.761" stroke="black" fill="none" stroke-linecap="round"></path></svg>